<mxfile host="app.diagrams.net" agent="Mozilla/5.0 (Windows NT 10.0; Win64; x64) AppleWebKit/537.36 (KHTML, like Gecko) Chrome/128.0.6613.644 YaBrowser/24.10.4.644 (beta) Yowser/2.5 Safari/537.36" version="24.9.3">
  <diagram name="Страница — 1" id="e90KvLTBh_sxvmeFYQ4V">
    <mxGraphModel dx="794" dy="703" grid="1" gridSize="10" guides="1" tooltips="1" connect="1" arrows="1" fold="1" page="1" pageScale="1" pageWidth="827" pageHeight="1169" math="0" shadow="0">
      <root>
        <mxCell id="0" />
        <mxCell id="1" parent="0" />
        <mxCell id="pK8G2o1DIDhB56xrQFw6-1" value="Internet" style="ellipse;shape=cloud;whiteSpace=wrap;html=1;" vertex="1" parent="1">
          <mxGeometry x="80" y="160" width="120" height="80" as="geometry" />
        </mxCell>
        <mxCell id="pK8G2o1DIDhB56xrQFw6-3" value="CRM" style="shape=cylinder3;whiteSpace=wrap;html=1;boundedLbl=1;backgroundOutline=1;size=15;" vertex="1" parent="1">
          <mxGeometry x="110" y="280" width="60" height="80" as="geometry" />
        </mxCell>
        <mxCell id="pK8G2o1DIDhB56xrQFw6-4" value="Опросы и исследования" style="shape=note;whiteSpace=wrap;html=1;backgroundOutline=1;darkOpacity=0.05;" vertex="1" parent="1">
          <mxGeometry x="100" y="400" width="80" height="100" as="geometry" />
        </mxCell>
        <mxCell id="pK8G2o1DIDhB56xrQFw6-5" value="Очистка данных" style="rounded=1;whiteSpace=wrap;html=1;" vertex="1" parent="1">
          <mxGeometry x="360" y="110" width="120" height="60" as="geometry" />
        </mxCell>
        <mxCell id="pK8G2o1DIDhB56xrQFw6-6" value="Анализ результатов опросов и исследований" style="rounded=1;whiteSpace=wrap;html=1;" vertex="1" parent="1">
          <mxGeometry x="360" y="230" width="120" height="60" as="geometry" />
        </mxCell>
        <mxCell id="pK8G2o1DIDhB56xrQFw6-7" value="Маппинг" style="rounded=1;whiteSpace=wrap;html=1;" vertex="1" parent="1">
          <mxGeometry x="360" y="350" width="120" height="60" as="geometry" />
        </mxCell>
        <mxCell id="pK8G2o1DIDhB56xrQFw6-8" value="Подготовка к загрузке в хранилище" style="rounded=1;whiteSpace=wrap;html=1;" vertex="1" parent="1">
          <mxGeometry x="360" y="470" width="120" height="60" as="geometry" />
        </mxCell>
        <mxCell id="pK8G2o1DIDhB56xrQFw6-11" value="Extracting (Извлечение данных)" style="swimlane;whiteSpace=wrap;html=1;" vertex="1" parent="1">
          <mxGeometry x="40" y="40" width="200" height="560" as="geometry" />
        </mxCell>
        <mxCell id="pK8G2o1DIDhB56xrQFw6-12" value="Transform (Обработка данных)" style="swimlane;whiteSpace=wrap;html=1;" vertex="1" parent="1">
          <mxGeometry x="320" y="40" width="200" height="560" as="geometry" />
        </mxCell>
        <mxCell id="pK8G2o1DIDhB56xrQFw6-13" value="Load (Загрузка)" style="swimlane;whiteSpace=wrap;html=1;" vertex="1" parent="1">
          <mxGeometry x="600" y="40" width="200" height="560" as="geometry" />
        </mxCell>
        <mxCell id="pK8G2o1DIDhB56xrQFw6-9" value="Хранилище данных" style="shape=cylinder3;whiteSpace=wrap;html=1;boundedLbl=1;backgroundOutline=1;size=15;" vertex="1" parent="pK8G2o1DIDhB56xrQFw6-13">
          <mxGeometry x="60" y="105" width="80" height="110" as="geometry" />
        </mxCell>
        <mxCell id="pK8G2o1DIDhB56xrQFw6-10" value="Инструменты бизнес-аналитики" style="shape=document;whiteSpace=wrap;html=1;boundedLbl=1;" vertex="1" parent="pK8G2o1DIDhB56xrQFw6-13">
          <mxGeometry x="40" y="370" width="120" height="80" as="geometry" />
        </mxCell>
        <mxCell id="pK8G2o1DIDhB56xrQFw6-18" value="" style="shape=flexArrow;endArrow=classic;html=1;rounded=0;" edge="1" parent="1">
          <mxGeometry width="50" height="50" relative="1" as="geometry">
            <mxPoint x="240" y="319.5" as="sourcePoint" />
            <mxPoint x="320" y="319.5" as="targetPoint" />
            <Array as="points">
              <mxPoint x="280" y="319.5" />
            </Array>
          </mxGeometry>
        </mxCell>
        <mxCell id="pK8G2o1DIDhB56xrQFw6-19" value="" style="shape=flexArrow;endArrow=classic;html=1;rounded=0;" edge="1" parent="1">
          <mxGeometry width="50" height="50" relative="1" as="geometry">
            <mxPoint x="520" y="319.5" as="sourcePoint" />
            <mxPoint x="600" y="319.5" as="targetPoint" />
            <Array as="points">
              <mxPoint x="560" y="319.5" />
            </Array>
          </mxGeometry>
        </mxCell>
      </root>
    </mxGraphModel>
  </diagram>
</mxfile>
